<svg width="542" height="41" viewBox="0 0 542 41" fill="none" xmlns="http://www.w3.org/2000/svg">
<path d="M5.9325 40.4551H0.242188V0.544922H23.0424V3.40957H25.8876V6.25473H28.7327V20.5H25.8876V23.3646H23.0424V26.2098H5.9325V40.4551ZM5.9325 20.5H20.1973V17.6548H23.0424V9.09988H20.1973V6.25473H5.9325V20.5Z" fill="black"/>
<path d="M35.8651 40.4551H30.1748V31.9196H33.02V23.3646H35.8651V14.8097H38.7103V6.25473H41.5749V0.544922H50.1299V6.25473H52.9751V14.8097H55.8202V23.3646H58.6654V31.9196H61.53V40.4551H55.8202V31.9196H35.8651V40.4551ZM38.7103 26.2098H52.9751V23.3646H50.1299V14.8097H47.2652V9.09988H44.4201V14.8097H41.5749V23.3646H38.7103V26.2098Z" fill="black"/>
<path d="M88.598 40.4551H74.3332V37.6099H71.4881V34.7648H68.6429V31.9196H65.7978V9.09988H68.6429V6.25473H71.4881V3.40957H74.3332V0.544922H91.4432V3.40957H94.2883V6.25473H97.153V9.09988H99.9981V14.8097H94.2883V11.9645H91.4432V9.09988H88.598V6.25473H77.1979V9.09988H74.3332V11.9645H71.4881V29.055H74.3332V31.9196H77.1979V34.7648H88.598V31.9196H91.4432V29.055H94.2883V26.2098H85.7528V20.5H99.9981V40.4551H94.2883V34.7648H91.4432V37.6099H88.598V40.4551Z" fill="black"/>
<path d="M134.198 40.4551H105.708V0.544922H134.198V6.25473H111.398V16.2323H131.353V21.9421H111.398V34.7648H134.198V40.4551Z" fill="black"/>
<path d="M156.999 40.4551H151.308V0.544922H159.844V6.25473H162.709V11.9645H165.554V17.6548H168.399V23.3646H171.263V29.055H174.109V0.544922H179.799V40.4551H171.263V34.7648H168.399V29.055H165.554V23.3646H162.709V17.6548H159.844V11.9645H156.999V40.4551Z" fill="black"/>
<path d="M211.174 40.4551H194.064V37.6099H191.219V34.7648H188.373V31.9196H185.528V9.09988H188.373V6.25473H191.219V3.40957H194.064V0.544922H211.174V3.40957H214.019V6.25473H216.883V9.09988H219.729V31.9196H216.883V34.7648H214.019V37.6099H211.174V40.4551ZM196.928 34.7648H208.328V31.9196H211.174V29.055H214.019V11.9645H211.174V9.09988H208.328V6.25473H196.928V9.09988H194.064V11.9645H191.219V29.055H194.064V31.9196H196.928V34.7648Z" fill="black"/>
<path d="M239.703 40.4551H234.013V6.25473H222.613V0.544922H251.103V6.25473H239.703V40.4551Z" fill="black"/>
<path d="M272.442 40.4551H266.752V0.544922H295.242V6.25473H272.442V17.6548H292.397V23.3646H272.442V40.4551Z" fill="black"/>
<path d="M323.733 40.4551H306.623V37.6099H303.778V34.7648H300.933V31.9196H298.087V9.09988H300.933V6.25473H303.778V3.40957H306.623V0.544922H323.733V3.40957H326.578V6.25473H329.443V9.09988H332.288V31.9196H329.443V34.7648H326.578V37.6099H323.733V40.4551ZM309.487 34.7648H320.888V31.9196H323.733V29.055H326.578V11.9645H323.733V9.09988H320.888V6.25473H309.487V9.09988H306.623V11.9645H303.778V29.055H306.623V31.9196H309.487V34.7648Z" fill="black"/>
<path d="M360.798 40.4551H343.688V37.6099H340.843V34.7648H337.998V0.544922H343.688V31.9196H346.533V34.7648H357.953V31.9196H360.798V0.544922H366.488V34.7648H363.643V37.6099H360.798V40.4551Z" fill="black"/>
<path d="M377.908 40.4551H372.217V0.544922H380.753V6.25473H383.617V11.9645H386.463V17.6548H389.308V23.3646H392.172V29.055H395.018V0.544922H400.708V40.4551H392.172V34.7648H389.308V29.055H386.463V23.3646H383.617V17.6548H380.753V11.9645H377.908V40.4551Z" fill="black"/>
<path d="M429.237 40.4551H406.437V0.544922H429.237V3.40957H432.083V6.25473H434.928V9.09988H437.792V31.9196H434.928V34.7648H432.083V37.6099H429.237V40.4551ZM412.128 34.7648H426.392V31.9196H429.237V29.055H432.083V11.9645H429.237V9.09988H426.392V6.25473H412.128V34.7648Z" fill="black"/>
<path d="M477.644 40.4551H471.934V31.9196H454.844V23.3646H457.689V17.6548H460.534V11.9645H463.379V6.25473H466.244V0.544922H477.644V27.6324H480.489V31.9196H477.644V40.4551ZM460.534 27.6324H471.934V6.25473H469.089V11.9645H466.244V17.6548H463.379V23.3646H460.534V27.6324Z" fill="black"/>
<path d="M504.732 40.4551H490.467V37.6099H487.622V34.7648H484.777V6.25473H487.622V3.40957H490.467V0.544922H504.732V3.40957H507.577V6.25473H510.422V34.7648H507.577V37.6099H504.732V40.4551ZM493.312 34.7648H501.867V31.9196H504.732V9.09988H501.867V6.25473H493.312V9.09988H490.467V31.9196H493.312V34.7648Z" fill="black"/>
<path d="M538.913 40.4551H533.203V31.9196H516.112V23.3646H518.957V17.6548H521.803V11.9645H524.648V6.25473H527.512V0.544922H538.913V27.6324H541.758V31.9196H538.913V40.4551ZM521.803 27.6324H533.203V6.25473H530.358V11.9645H527.512V17.6548H524.648V23.3646H521.803V27.6324Z" fill="black"/>
</svg>
